<svg width="327" height="68" viewBox="0 0 327 68" fill="none" xmlns="http://www.w3.org/2000/svg"
     class="w-full h-auto astro-PUX6A34N">
    <rect y="49" width="4.99999" height="327" transform="rotate(-90 0 49)" fill="#1c1c1a"
          class="astro-PUX6A34N"></rect>
    <rect y="55" width="3.99999" height="327" transform="rotate(-90 0 55)" fill="#1c1c1a"
          class="astro-PUX6A34N"></rect>
    <rect y="8" width="2.99999" height="327" transform="rotate(-90 0 8)" fill="#1c1c1a"
          class="astro-PUX6A34N"></rect>
    <rect y="68" width="2.99999" height="327" transform="rotate(-90 0 68)" fill="#1c1c1a"
          class="astro-PUX6A34N"></rect>
    <rect y="42" width="2.99999" height="327" transform="rotate(-90 0 42)" fill="#1c1c1a"
          class="astro-PUX6A34N"></rect>
    <rect y="29" width="11" height="327" transform="rotate(-90 0 29)" fill="#1c1c1a"
          class="astro-PUX6A34N"></rect>
    <rect y="3" width="2.99999" height="327" transform="rotate(-90 0 3)" fill="#1c1c1a"
          class="astro-PUX6A34N"></rect>
    <rect y="61" width="2.99999" height="327" transform="rotate(-90 0 61)" fill="#1c1c1a"
          class="astro-PUX6A34N"></rect>
    <rect y="35" width="2.99999" height="327" transform="rotate(-90 0 35)" fill="#1c1c1a"
          class="astro-PUX6A34N"></rect>
    <rect y="15" width="2.99999" height="327" transform="rotate(-90 0 15)" fill="#1c1c1a"
          class="astro-PUX6A34N"></rect>
</svg>
