<svg width="327" height="444" viewBox="0 0 327 444" fill="none" xmlns="http://www.w3.org/2000/svg">
<rect width="327" height="4" fill="#F5FFFA"/>
<rect y="6" width="327" height="2" fill="#F5FFFA"/>
<rect y="10" width="327" height="6" fill="#F5FFFA"/>
<rect y="22" width="327" height="4" fill="#F5FFFA"/>
<rect y="30" width="327" height="2" fill="#F5FFFA"/>
<rect y="36" width="327" height="2" fill="#F5FFFA"/>
<rect y="40" width="327" height="8" fill="#F5FFFA"/>
<rect y="56" width="327" height="2" fill="#F5FFFA"/>
<rect y="62" width="327" height="4" fill="#F5FFFA"/>
<rect y="68" width="327" height="2" fill="#F5FFFA"/>
<rect y="78" width="327" height="2" fill="#F5FFFA"/>
<rect y="82" width="327" height="2" fill="#F5FFFA"/>
<rect y="88" width="327" height="4" fill="#F5FFFA"/>
<rect y="96" width="327" height="2" fill="#F5FFFA"/>
<rect y="100" width="327" height="4" fill="#F5FFFA"/>
<rect y="112" width="327" height="2" fill="#F5FFFA"/>
<rect y="116" width="327" height="2" fill="#F5FFFA"/>
<rect y="120" width="327" height="6" fill="#F5FFFA"/>
<rect y="128" width="327" height="8" fill="#F5FFFA"/>
<rect y="140" width="327" height="4" fill="#F5FFFA"/>
<rect y="148" width="327" height="4" fill="#F5FFFA"/>
<rect y="154" width="327" height="4" fill="#F5FFFA"/>
<rect y="166" width="327" height="4" fill="#F5FFFA"/>
<rect y="172" width="327" height="2" fill="#F5FFFA"/>
<rect y="178" width="327" height="2" fill="#F5FFFA"/>
<rect y="182" width="327" height="8" fill="#F5FFFA"/>
<rect y="194" width="327" height="2" fill="#F5FFFA"/>
<rect y="200" width="327" height="2" fill="#F5FFFA"/>
<rect y="206" width="327" height="2" fill="#F5FFFA"/>
<rect y="210" width="327" height="8" fill="#F5FFFA"/>
<rect y="222" width="327" height="2" fill="#F5FFFA"/>
<rect y="226" width="327" height="2" fill="#F5FFFA"/>
<rect y="232" width="327" height="2" fill="#F5FFFA"/>
<rect y="238" width="327" height="8" fill="#F5FFFA"/>
<rect y="254" width="327" height="2" fill="#F5FFFA"/>
<rect y="260" width="327" height="4" fill="#F5FFFA"/>
<rect y="266" width="327" height="2" fill="#F5FFFA"/>
<rect y="272" width="327" height="4" fill="#F5FFFA"/>
<rect y="280" width="327" height="4" fill="#F5FFFA"/>
<rect y="286" width="327" height="4" fill="#F5FFFA"/>
<rect y="298" width="327" height="2" fill="#F5FFFA"/>
<rect y="304" width="327" height="4" fill="#F5FFFA"/>
<rect y="310" width="327" height="2" fill="#F5FFFA"/>
<rect y="314" width="327" height="2" fill="#F5FFFA"/>
<rect y="324" width="327" height="4" fill="#F5FFFA"/>
<rect y="332" width="327" height="2" fill="#F5FFFA"/>
<rect y="338" width="327" height="2" fill="#F5FFFA"/>
<rect y="342" width="327" height="8" fill="#F5FFFA"/>
<rect y="354" width="327" height="2" fill="#F5FFFA"/>
<rect y="360" width="327" height="4" fill="#F5FFFA"/>
<rect y="368" width="327" height="4" fill="#F5FFFA"/>
<rect y="374" width="327" height="4" fill="#F5FFFA"/>
<rect y="380" width="327" height="2" fill="#F5FFFA"/>
<rect y="384" width="327" height="8" fill="#F5FFFA"/>
<rect y="398" width="327" height="2" fill="#F5FFFA"/>
<rect y="408" width="327" height="2" fill="#F5FFFA"/>
<rect y="412" width="327" height="4" fill="#F5FFFA"/>
<rect y="420" width="327" height="2" fill="#F5FFFA"/>
<rect y="430" width="327" height="2" fill="#F5FFFA"/>
<rect y="436" width="327" height="2" fill="#F5FFFA"/>
<rect y="440" width="327" height="4" fill="#F5FFFA"/>
</svg>
