<?xml version="1.0" standalone="no"?>
<!DOCTYPE svg PUBLIC "-//W3C//DTD SVG 20010904//EN"
 "http://www.w3.org/TR/2001/REC-SVG-20010904/DTD/svg10.dtd">
<svg version="1.0" xmlns="http://www.w3.org/2000/svg"
 width="1080.000000pt" height="1080.000000pt" viewBox="0 0 1080.000000 1080.000000"
 preserveAspectRatio="xMidYMid meet">
<metadata>
Created by potrace 1.14, written by Peter Selinger 2001-2017
</metadata>
<g transform="translate(0.000000,1080.000000) scale(0.100000,-0.100000)"
fill="#000000" stroke="none">
<path d="M5557 9523 c-1 -1 -85 -4 -187 -8 -102 -3 -201 -8 -220 -10 -19 -1
-75 -6 -125 -10 -49 -3 -108 -8 -130 -10 -22 -2 -68 -7 -103 -10 -35 -4 -72
-8 -84 -10 -11 -2 -39 -6 -62 -9 -43 -5 -103 -14 -146 -22 -14 -2 -54 -9 -90
-15 -36 -6 -123 -25 -195 -41 -71 -16 -137 -31 -145 -33 -102 -22 -382 -116
-520 -175 -41 -18 -201 -83 -355 -146 -356 -145 -399 -166 -426 -210 l-21 -35
-3 -2142 c-1 -1178 -5 -2203 -8 -2277 -27 -639 -23 -1543 8 -1880 8 -77 34
-116 167 -247 103 -101 138 -130 258 -207 155 -100 290 -161 540 -242 120 -39
156 -45 187 -31 29 13 62 93 72 174 4 37 9 1082 9 2322 1 1241 2 2270 2 2288
0 74 96 137 310 203 317 97 401 139 421 213 17 64 17 740 0 761 -20 24 -45 20
-176 -24 -169 -57 -421 -129 -477 -136 -66 -8 -79 14 -77 132 1 49 -1 199 -4
334 -5 268 4 367 39 399 18 17 160 76 289 119 211 71 493 130 755 158 36 4 76
8 90 9 133 16 517 22 616 10 47 -5 382 -59 504 -80 114 -21 246 -36 265 -31
14 4 29 14 34 24 5 9 12 123 15 252 4 129 9 310 12 403 4 132 2 167 -8 168 -7
0 -22 2 -33 5 -20 3 -137 18 -225 28 -25 3 -79 8 -120 11 -41 3 -88 8 -105 10
-53 7 -543 24 -548 18z"/>
<path d="M6915 9478 c-11 -6 -23 -16 -27 -22 -5 -6 -6 -72 -3 -146 5 -131 6
-1826 2 -3675 -2 -1057 7 -1377 43 -1419 11 -14 97 -58 290 -149 63 -30 132
-68 154 -86 39 -32 69 -38 96 -21 12 8 15 37 15 162 -1 136 -4 198 -21 393
-16 197 -24 276 -29 315 -2 19 -7 71 -10 115 -3 44 -8 96 -10 115 -2 19 -7 69
-10 110 -4 41 -8 91 -10 110 -2 19 -6 69 -10 110 -3 41 -8 91 -10 110 -3 19
-7 67 -10 105 -3 39 -7 90 -10 115 -2 25 -7 77 -10 115 -3 39 -7 97 -10 130
-8 86 -13 156 -21 270 -3 55 -8 120 -10 145 -2 25 -6 155 -8 290 -5 250 4 335
32 335 9 0 42 -78 89 -205 41 -113 78 -214 83 -225 5 -11 28 -72 50 -135 23
-63 79 -216 125 -340 45 -124 149 -405 230 -625 80 -220 150 -409 155 -420 4
-11 17 -46 29 -77 51 -139 64 -175 77 -205 8 -17 14 -34 14 -38 0 -7 118 -333
170 -470 18 -46 213 -575 282 -763 22 -61 34 -82 48 -82 52 0 223 289 349 590
29 69 57 134 62 145 30 66 135 409 173 566 72 296 100 502 100 729 -1 252 -33
380 -140 548 -19 29 -34 54 -34 56 0 4 -77 119 -118 175 -150 211 -383 460
-558 597 -56 43 -183 135 -282 204 -106 73 -182 132 -182 141 0 9 9 24 20 34
16 15 40 19 128 21 160 4 169 5 500 69 12 2 25 6 30 8 4 3 30 8 57 11 28 4 57
9 65 11 8 2 30 7 49 10 66 11 95 39 93 89 -3 79 -382 690 -564 910 -65 78 -75
84 -124 82 -36 -2 -65 -19 -210 -126 -93 -68 -241 -176 -329 -239 -88 -63
-195 -142 -237 -175 -145 -115 -221 -151 -253 -120 -16 17 -17 40 -11 339 5
307 8 363 21 485 6 56 33 265 40 310 14 89 45 271 51 300 23 112 13 145 -54
178 -36 19 -165 56 -231 67 -19 3 -58 17 -88 30 -61 28 -61 28 -88 13z"/>
<path d="M5617 8555 c-1 -2 -38 -6 -82 -10 -185 -16 -315 -57 -349 -111 -14
-21 -16 -294 -16 -2711 0 -1478 1 -2699 3 -2713 7 -46 35 -98 62 -116 21 -14
51 -17 153 -18 163 -1 208 7 245 41 30 29 42 52 59 113 6 20 11 237 13 500 2
294 7 475 13 492 16 40 63 50 248 52 127 2 167 -1 176 -11 8 -10 11 -176 12
-563 1 -488 3 -551 17 -565 19 -19 149 -41 257 -44 74 -2 205 20 244 40 17 9
18 156 18 2684 0 1675 -4 2683 -10 2699 -15 40 -64 64 -310 151 -78 28 -255
66 -375 81 -45 6 -372 13 -378 9z m235 -1140 c29 -25 82 -66 118 -90 91 -63
138 -108 160 -157 18 -40 20 -69 20 -455 l0 -412 -211 3 c-115 2 -213 6 -216
9 -3 3 -5 256 -5 562 1 410 4 560 13 571 22 27 65 16 121 -31z m293 -1906 c3
-3 6 -150 8 -327 l3 -322 -218 3 c-120 2 -220 6 -224 9 -7 8 -9 537 -1 563 3
11 6 25 6 32 2 34 98 49 293 48 70 -1 130 -3 133 -6z"/>
<path d="M2510 8451 c-25 -22 -48 -41 -51 -41 -6 0 -75 -82 -152 -180 -192
-243 -414 -632 -547 -960 -12 -30 -28 -68 -35 -85 -48 -114 -159 -455 -180
-553 -20 -95 -54 -279 -60 -327 -4 -32 -9 -68 -11 -79 -2 -10 -6 -47 -10 -80
-3 -34 -7 -74 -9 -91 -24 -222 -24 -808 0 -935 2 -8 6 -44 10 -80 3 -36 8 -76
10 -90 90 -602 223 -998 515 -1525 201 -363 384 -620 488 -686 49 -31 82 -37
83 -16 0 6 2 21 4 32 16 91 29 596 27 1070 -1 248 -2 1389 -2 2537 -1 1937 -3
2089 -18 2108 -17 21 -17 21 -62 -19z"/>
<path d="M4810 6750 c-14 -4 -40 -15 -58 -24 -18 -9 -72 -30 -120 -47 -48 -17
-115 -46 -150 -65 -34 -19 -70 -34 -80 -34 -9 0 -40 -13 -68 -29 -97 -56 -87
186 -90 -2236 -1 -1172 -4 -2191 -7 -2265 -7 -183 2 -228 58 -312 26 -37 67
-86 93 -109 64 -57 193 -139 272 -173 36 -15 74 -31 85 -36 37 -16 119 -39
225 -64 113 -27 125 -29 241 -45 72 -10 108 -13 259 -26 75 -7 366 -7 425 0
22 2 69 7 105 10 69 7 120 13 160 20 14 3 41 7 60 10 303 50 658 179 944 342
128 74 399 252 458 302 26 22 28 399 2 596 -16 124 -22 395 -10 461 13 75 -15
69 -329 -61 -166 -69 -346 -132 -450 -159 -194 -49 -606 -113 -850 -132 -38
-3 -88 -7 -110 -9 -58 -6 -368 -6 -450 0 -159 11 -185 14 -338 40 -119 19
-162 38 -179 79 -10 25 -14 420 -18 1981 -3 1073 -9 1957 -13 1967 -10 20 -34
27 -67 18z"/>
<path d="M7769 4758 c0 -29 -4 -109 -7 -178 -4 -69 -7 -623 -6 -1232 0 -896 3
-1109 13 -1122 28 -34 102 -5 177 68 6 6 26 22 44 36 62 47 115 92 230 200 63
59 145 133 181 163 58 49 68 63 79 107 24 102 4 185 -123 500 -100 246 -217
556 -357 945 -160 446 -206 565 -217 565 -9 0 -13 -18 -14 -52z"/>
</g>
</svg>
